<?xml version="1.0" encoding="UTF-8"?>
<svg version="1.1" xmlns="http://www.w3.org/2000/svg" width="500" height="500">
<path d="M0 0 C3.64751775 1.21583925 3.85255743 2.00287997 5.64453125 5.28515625 C6.14903809 6.19563721 6.65354492 7.10611816 7.17333984 8.04418945 C7.98472412 9.53825317 7.98472412 9.53825317 8.8125 11.0625 C9.98672576 13.1831537 11.16255703 15.30291907 12.33984375 17.421875 C12.94554199 18.51564453 13.55124023 19.60941406 14.17529297 20.73632812 C17.00730101 25.80165908 19.93767997 30.80772974 22.875 35.8125 C29.67010868 47.41868187 36.39590465 59.06393965 43.10888672 70.71777344 C46.23680148 76.14659942 49.36858448 81.57319281 52.5 87 C53.75001879 89.16665583 55.00001878 91.3333225 56.25 93.5 C57.178125 95.10875 57.178125 95.10875 58.125 96.75 C63.75 106.5 63.75 106.5 65.62744141 109.75439453 C66.86911527 111.9065213 68.11097522 114.05854073 69.35302734 116.21044922 C72.26166823 121.25030977 75.16851898 126.29117492 78.06854248 131.33599854 C79.09275665 133.11749578 80.11757651 134.89864322 81.14257812 136.6796875 C82.42633375 138.91076625 83.70895939 141.14249573 84.99023438 143.375 C85.57353516 144.38820312 86.15683594 145.40140625 86.7578125 146.4453125 C87.30211914 147.41629883 87.84642578 148.38728516 88.40722656 149.38769531 C89.88514161 151.9789732 89.88514161 151.9789732 91.67871094 153.91699219 C93.44052436 155.98600535 94.30599841 157.35704195 95 160 C94.47010483 164.98660363 93.16023807 169.6384996 91.74389648 174.43865967 C90.67637606 178.1142828 89.72617502 181.81833099 88.76281738 185.52236938 C87.45201439 190.54291751 86.09753299 195.55171219 84.75 200.5625 C84.18986879 202.65293174 83.6299715 204.74342617 83.0703125 206.83398438 C81.71622959 211.89004766 80.35901093 216.94525919 79 222 C80.07942871 222.11722412 81.15885742 222.23444824 82.27099609 222.35522461 C132.92166979 228.74362912 132.92166979 228.74362912 145.01171875 242.35546875 C148.12897248 247.16690862 150.05879726 252.31679393 151.81933594 257.75292969 C153.92408548 263.54142615 157.25514388 268.62658471 160.4375 273.875 C161.70212888 276.05670876 162.96124453 278.24162253 164.21484375 280.4296875 C167.97355381 286.95486243 171.7364175 293.4776345 175.5 300 C176.75001879 302.16665583 178.00001878 304.3333225 179.25 306.5 C179.86875 307.5725 180.4875 308.645 181.125 309.75 C193 330.33333333 204.875 350.91666667 216.75 371.5 C217.3699585 372.57443359 217.98991699 373.64886719 218.62866211 374.75585938 C219.86701979 376.90266914 221.1048213 379.04979984 222.34204102 381.19726562 C225.28347196 386.30118224 228.23073772 391.40148134 231.19747925 396.49072266 C232.60697037 398.90938314 234.01332765 401.32985862 235.41943359 403.75048828 C236.41978682 405.46956052 237.42469734 407.1859782 238.4296875 408.90234375 C239.32880859 410.45115234 239.32880859 410.45115234 240.24609375 412.03125 C240.77904053 412.94455078 241.3119873 413.85785156 241.86108398 414.79882812 C243 417 243 417 243 419 C241.84814209 418.93417725 240.69628418 418.86835449 239.50952148 418.80053711 C214.8563588 417.41250367 190.58578454 416.11972128 166.015625 419.33886719 C164.01275343 419.59701941 162.00944277 419.80018719 160 420 C158.85688354 420.16798096 158.85688354 420.16798096 157.69067383 420.33935547 C155.24814825 420.56714527 153.3808275 420.60505198 151 420 C148.44047222 417.72594014 147.01631369 415.00845294 145.4375 412 C144.97843262 411.18708496 144.51936523 410.37416992 144.04638672 409.53662109 C142.65620228 407.0443608 141.32156574 404.52921201 140 402 C139.4129126 400.89640137 139.4129126 400.89640137 138.81396484 399.77050781 C127 377.44661629 127 377.44661629 127 371 C126.39186337 370.88517273 125.78372673 370.77034546 125.15716171 370.65203857 C119.09862599 369.47849345 113.15204923 368.06399028 107.19628906 366.453125 C106.27075729 366.20554947 105.34522552 365.95797394 104.39164734 365.70289612 C101.34884327 364.88820372 98.30724818 364.06908909 95.265625 363.25 C93.10658693 362.67116743 90.94746659 362.09264167 88.78826904 361.5144043 C83.094297 359.98879202 77.40130501 358.45955533 71.70855713 356.92938232 C62.7251471 354.51536336 53.74027786 352.10677665 44.75547791 349.69793701 C42.55806357 349.10875952 40.3606859 348.51944526 38.16334534 347.92999268 C18.12581206 342.55527143 -1.92988323 337.25166597 -22 332 C-21.04867398 333.92467658 -20.0948169 335.84810226 -19.13989258 337.77099609 C-18.60898514 338.84223724 -18.0780777 339.91347839 -17.53108215 341.0171814 C-11.45660869 352.85132917 -2.47022656 362.77898993 7 372 C7.72703125 372.77730469 7.72703125 372.77730469 8.46875 373.5703125 C12.75602494 378.08004038 17.44888316 381.64307483 22.546875 385.203125 C24.5806288 386.69281728 26.29347091 388.15694858 28 390 C27.34 390.33 26.68 390.66 26 391 C23.15418049 389.99559312 20.40509635 388.91577717 17.625 387.75 C15.79620373 386.99716372 13.96673829 386.24595156 12.13671875 385.49609375 C11.14720215 385.08987793 10.15768555 384.68366211 9.13818359 384.26513672 C5.90430482 382.96142116 2.6540817 381.7107065 -0.60546875 380.47265625 C-12.80864055 375.8221812 -24.78917602 370.89358031 -36.5625 365.25 C-38.19264038 364.47233276 -38.19264038 364.47233276 -39.85571289 363.67895508 C-60.54802266 353.56788537 -60.54802266 353.56788537 -67 346 C-67.14179687 345.32324219 -67.28359375 344.64648438 -67.4296875 343.94921875 C-67.79901691 341.83571532 -67.79901691 341.83571532 -69.79296875 341.015625 C-70.88544922 340.51289062 -70.88544922 340.51289062 -72 340 C-84.30220439 328.99396133 -91.13766723 312.95386101 -92.22314453 296.64794922 C-92.95814153 279.1209204 -91.92362817 262.14411496 -88 245 C-87.7745752 244.01386719 -87.54915039 243.02773438 -87.31689453 242.01171875 C-77.17992749 199.12402115 -59.10467356 158.29173812 -42.14572144 117.78530884 C-24.24188733 75.06909394 -24.24188733 75.06909394 -8.75 31.4375 C-8.53052704 30.76092346 -8.31105408 30.08434692 -8.08493042 29.38726807 C-4.96123481 19.68906217 -2.37151882 9.90558879 0 0 Z " fill="currentColor" transform="translate(123,72)"/>
<path d="M0 0 C20.23271262 1.16727188 38.46431721 15.99225927 51.63085938 30.37939453 C55.39293433 34.83243546 58.15392433 39.93398531 61 45 C62.16248831 46.89839829 63.3287776 48.79447775 64.5 50.6875 C67 54.75 67 54.75 67 57 C67.57141724 57.105401 68.14283447 57.210802 68.73156738 57.31939697 C75.89863818 58.69176556 82.92000005 60.47911644 89.96875 62.359375 C91.24013321 62.69601166 92.51151642 63.03264832 93.82142639 63.37948608 C97.31454011 64.30466254 100.80657815 65.23383919 104.29838943 66.16391754 C107.27619516 66.95662799 110.25457553 67.74716815 113.23293018 68.53781319 C157.27839911 80.23182654 201.30039081 92.01833943 245.28125 103.953125 C245.98948347 104.1452998 246.69771694 104.33747459 247.42741203 104.53547287 C254.65449328 106.4967819 261.88069127 108.46129112 269.10571289 110.43017578 C270.2573291 110.74355896 271.40894531 111.05694214 272.59545898 111.37982178 C274.72539494 111.95950042 276.85505117 112.54020824 278.984375 113.12213135 C279.90420166 113.37235046 280.82402832 113.62256958 281.77172852 113.88037109 C282.57030777 114.09825287 283.36888702 114.31613464 284.19166565 114.5406189 C285.85057392 115.04103584 285.85057392 115.04103584 287 115 C277.85439014 86.69710888 262.14450781 63.20318521 238.05859375 45.3671875 C235.08562772 43.06627126 232.58921476 40.70975549 230 38 C256.34517018 46.6341314 282.62478159 56.68603178 307 70 C307.58749023 70.31549805 308.17498047 70.63099609 308.78027344 70.95605469 C328.26470869 81.64729406 342.11294114 99.75033253 348.56640625 120.85205078 C350.53958477 128.32017913 350.39743896 135.95618591 350.375 143.625 C350.37412384 144.35542511 350.37324768 145.08585022 350.37234497 145.83840942 C350.32085024 158.90542116 349.05029749 171.26417606 346 184 C345.7745752 184.96760254 345.54915039 185.93520508 345.31689453 186.93212891 C335.80265097 226.94620825 319.41308546 265.10779405 303.609375 302.94140625 C303.16086182 304.01537155 302.71234863 305.08933685 302.25024414 306.19584656 C300.08467033 311.3764649 297.91159792 316.55372626 295.72460938 321.7253418 C295.32034729 322.68629257 294.91608521 323.64724335 294.49957275 324.63731384 C293.7602266 326.3947585 293.01733418 328.15071935 292.26947021 329.90455627 C286.06128182 344.69723425 281.50249233 359.80783382 277.41796875 375.296875 C276.91382676 377.18888839 276.40912091 379.08075161 275.90388489 380.97247314 C274.85701812 384.89756027 273.81448471 388.82376014 272.77563477 392.75097656 C271.44551197 397.77925933 270.10800115 402.80553792 268.7677412 407.83112717 C267.48218565 412.65243233 266.1997907 417.47457606 264.91796875 422.296875 C264.67504782 423.21006248 264.43212688 424.12324997 264.18184471 425.0641098 C263.49605373 427.64482622 262.81246358 430.22611462 262.12963867 432.80761719 C261.92759323 433.56709656 261.72554779 434.32657593 261.51737976 435.10906982 C260.56416751 438.72232775 259.67834254 442.32450908 259 446 C258.34 446 257.68 446 257 446 C256.6282666 445.33170166 256.2565332 444.66340332 255.87353516 443.97485352 C246.5341651 427.19311466 246.5341651 427.19311466 236.88989258 410.5859375 C233.14775591 404.27328523 229.47618322 397.92096234 225.8125 391.5625 C225.17449463 390.45527588 224.53648926 389.34805176 223.87915039 388.20727539 C222.57110523 385.93662932 221.26324552 383.66587642 219.95556641 381.39501953 C216.80667946 375.9283002 213.65316736 370.46425113 210.5 365 C209.2499765 362.83334689 207.99997653 360.66668021 206.75 358.5 C206.13125 357.4275 205.5125 356.355 204.875 355.25 C199.25 345.5 199.25 345.5 197.37353516 342.24731445 C196.12858718 340.08950197 194.8834711 337.93178647 193.63818359 335.77416992 C190.43447349 330.22283408 187.2340637 324.66963459 184.0390625 319.11328125 C183.38357422 317.97439453 182.72808594 316.83550781 182.05273438 315.66210938 C180.8211516 313.52212512 179.59058114 311.38155774 178.36132812 309.24023438 C177.79091797 308.24958984 177.22050781 307.25894531 176.6328125 306.23828125 C176.06933105 305.22749512 175.50584961 304.21670898 174.92529297 303.17529297 C173.49191357 300.81128936 172.08594774 298.7797672 170.39111328 296.62548828 C166.45103503 291.38873082 163.47031415 286.94327109 164.23583984 280.17895508 C165.25500657 274.73609136 166.92362466 269.51103063 168.625 264.25 C169.15933446 262.45741502 169.68801704 260.66313528 170.2109375 258.8671875 C171.24977109 255.32350055 172.31849072 251.7911172 173.41113281 248.26367188 C175.86867463 240.24716372 177.92795775 232.12296404 180 224 C179.0200708 223.77505859 178.0401416 223.55011719 177.03051758 223.31835938 C166.11437004 220.79259916 155.25277204 218.08103214 144.42016602 215.21826172 C142.57660911 214.73369597 140.73150494 214.2549841 138.88500977 213.78173828 C136.17361482 213.0863871 133.46742634 212.37336965 130.76171875 211.65625 C129.93886887 211.44883179 129.11601898 211.24141357 128.26823425 211.02770996 C122.52435458 209.47474446 119.72882226 207.63522854 116.40698242 202.57177734 C115.89498291 201.6689502 115.3829834 200.76612305 114.85546875 199.8359375 C114.26894531 198.80984375 113.68242187 197.78375 113.078125 196.7265625 C112.45421875 195.62054688 111.8303125 194.51453125 111.1875 193.375 C110.52281732 192.2079447 109.85744001 191.04128477 109.19140625 189.875 C107.80899197 187.4530191 106.42957485 185.02936846 105.05224609 182.60449219 C101.89605861 177.05360299 98.69574991 171.52817099 95.5 166 C94.24979302 163.83345276 92.99979367 161.66678569 91.75 159.5 C91.13125 158.4275 90.5125 157.355 89.875 156.25 C39.25 68.5 39.25 68.5 37.37451172 65.24902344 C36.12628966 63.08552524 34.87791761 60.92211357 33.62939453 58.75878906 C30.47594744 53.29434983 27.32523904 47.82836355 24.1796875 42.359375 C17.48238349 30.72234912 10.74693283 19.11239792 3.85888672 7.58691406 C3.34986816 6.73194336 2.84084961 5.87697266 2.31640625 4.99609375 C1.86724854 4.24513428 1.41809082 3.4941748 0.95532227 2.72045898 C0 1 0 1 0 0 Z " fill="currentColor" transform="translate(127,8)"/>
<path d="M0 0 C2.97 0.99 5.94 1.98 9 3 C8.67 3.99 8.34 4.98 8 6 C4.08597051 4.73058503 2.20927127 3.48832306 0 0 Z " fill="currentColor" transform="translate(357,46)"/>
<path d="" fill="currentColor" transform="translate(0,0)"/>
</svg>
